# xmcd CD database file
#
# Track frame offsets:
#	150
#	18967
#	41086
#	82232
#	95071
#	107644
#	118826
#	137473
#	149210
#	172982
#	188004
#	200334
#	219166
#
# Disc length: 3273 seconds
#
# Revision: 0
# Processed by: cddbd v1.5.1PL0 Copyright (c) Steve Scherf et al.
# Submitted via: CDex 1.50beta10
#
DISCID=ba0cc70d
DTITLE=Various Artist - Dazed and Confused (Uncut 5-05)
DYEAR=2005
DGENRE=Blues
TTITLE0=Mick Ronson - White Night-White Heat
TTITLE1=Santana - Soul Sacrifice
TTITLE2=Jimi Hendrix Experience - Voodoo Chile (Slight Return)
TTITLE3=Carl Perkins - Honey Don't
TTITLE4=Yardbirds (with Eric Clapton) - Got To Hurry
TTITLE5=Johnny Winter - Gangster Of Love
TTITLE6=Albert King - Cold Women With Warm Hearts
TTITLE7=Yardbirds (with Jeff Beck) - Shapes Of Things
TTITLE8=Chic (with Slash) - Le Freak
TTITLE9=Peter Green - Albatross
TTITLE10=Yardbirds (with Jimi Page and Jeff Beck) - Stroll On
TTITLE11=Steve Howe - Southern Accent
TTITLE12=Albert Collins - Mustang Sally
EXTD=YEAR: 2005
EXTT0=
EXTT1=
EXTT2=
EXTT3=
EXTT4=
EXTT5=
EXTT6=
EXTT7=
EXTT8=
EXTT9=
EXTT10=
EXTT11=
EXTT12=
PLAYORDER=
